#!OML:ASF H:\Dans Jumps\Project 1\Capture day 1\Session 1\subject.ASF
:FULLY-SPECIFIED
:DEGREES
233
root 0.6816 17.6596 -14.7442 12.4485 -1.30963 -0.528158
lowerback 3.13793 -0.191682 -0.234216
upperback 6.26407 -0.309179 1.40359
thorax 4.71858 -0.203998 1.57935
lowerneck -12.3236 0.71502 -1.90134
upperneck 35.7683 1.15276 1.13181
head 14.29 0.383583 0.975259
rclavicle -3.37934e-015 2.34566e-014
rhumerus -18.9252 -5.10902 -84.729
rradius 29.2551
rwrist 27.2115
rhand -17.8865 -27.06
rfingers 7.12502
rthumb 8.37992 -56.8737
lclavicle -3.37934e-015 2.34566e-014
lhumerus -16.7954 -13.6935 91.3391
lradius 24.3999
lwrist 6.71318
lhand -24.5083 -2.57913
lfingers 7.12502
lthumb 1.98646 27.3914
rfemur -24.9663 -2.1107 18.7752
rtibia 25.2218
rfoot -11.4104 -5.02073
rtoes 12.3101
lfemur -23.0569 5.90695 -20.5562
ltibia 20.9131
lfoot -8.30649 5.93778
ltoes 7.80555
234
root 0.683454 17.6632 -14.75 12.496 -1.27131 -0.509647
lowerback 3.13067 -0.195406 -0.23329
upperback 6.26226 -0.313761 1.39484
thorax 4.72082 -0.205964 1.5697
lowerneck -12.2939 0.713372 -1.90783
upperneck 35.7481 1.1508 1.13464
head 14.2739 0.382636 0.976769
rclavicle 6.95746e-016 1.98785e-016
rhumerus -18.8375 -4.9044 -84.8106
rradius 29.2422
rwrist 27.21
rhand -17.8686 -27.056
rfingers 7.12502
rthumb 8.39714 -56.8691
lclavicle 6.95746e-016 1.98785e-016
lhumerus -16.6514 -13.7543 91.362
lradius 24.2751
lwrist 6.62967
lhand -24.4989 -2.58307
lfingers 7.12502
lthumb 1.99554 27.3873
rfemur -24.9801 -2.13811 18.7521
rtibia 25.121
rfoot -11.3556 -5.02196
rtoes 12.352
lfemur -23.0617 5.92073 -20.5924
ltibia 20.7706
lfoot -8.25061 5.85819
ltoes 7.87413
235
root 0.685342 17.6665 -14.7559 12.5375 -1.23532 -0.492982
lowerback 3.12624 -0.197064 -0.232348
upperback 6.26208 -0.315655 1.38764
thorax 4.72312 -0.206644 1.56169
lowerneck -12.2615 0.712646 -1.91298
upperneck 35.7319 1.14996 1.13706
head 14.259 0.38227 0.978076
rclavicle 2.28602e-015 -2.18663e-015
rhumerus -18.7394 -4.70402 -84.8917
rradius 29.2193
rwrist 27.2209
rhand -17.8441 -27.054
rfingers 7.12502
rthumb 8.42075 -56.8661
lclavicle 2.28602e-015 -2.18663e-015
lhumerus -16.4921 -13.8306 91.3873
lradius 24.1411
lwrist 6.54432
lhand -24.5043 -2.59137
lfingers 7.12502
lthumb 1.99035 27.3791
rfemur -24.9927 -2.16553 18.7305
rtibia 25.029
rfoot -11.309 -5.01976
rtoes 12.3953
lfemur -23.0687 5.93853 -20.627
ltibia 20.6438
lfoot -8.20338 5.77943
ltoes 7.93414
236
root 0.687187 17.6693 -14.762 12.5735 -1.1981 -0.47884
lowerback 3.12524 -0.198751 -0.231309
upperback 6.26246 -0.317669 1.38303
thorax 4.7241 -0.207447 1.55631
lowerneck -12.2291 0.71296 -1.91647
upperneck 35.7213 1.15032 1.13909
head 14.2467 0.382538 0.979185
rclavicle -3.67752e-015 1.19271e-015
rhumerus -18.634 -4.49916 -84.9735
rradius 29.1922
rwrist 27.2365
rhand -17.8104 -27.0523
rfingers 7.12502
rthumb 8.45331 -56.8631
lclavicle -3.67752e-015 1.19271e-015
lhumerus -16.3236 -13.9181 91.415
lradius 24.0079
lwrist 6.46283
lhand -24.5219 -2.59557
lfingers 7.12502
lthumb 1.97332 27.3751
rfemur -25.0062 -2.19461 18.7119
rtibia 24.9493
rfoot -11.2693 -5.01625
rtoes 12.435
lfemur -23.082 5.95824 -20.6588
ltibia 20.5395
lfoot -8.16627 5.70092
ltoes 7.98292
237
root 0.689057 17.6714 -14.7685 12.6041 -1.15761 -0.470085
lowerback 3.12885 -0.200326 -0.225571
upperback 6.26413 -0.31963 1.38148
thorax 4.72382 -0.20809 1.55148
lowerneck -12.1975 0.715346 -1.914
upperneck 35.7124 1.15327 1.1379
head 14.2353 0.384276 0.978355
rclavicle 8.64713e-015 -1.47101e-014
rhumerus -18.5227 -4.28562 -85.0561
rradius 29.1665
rwrist 27.251
rhand -17.7792 -27.0517
rfingers 7.12502
rthumb 8.48342 -56.8613
lclavicle 8.64713e-015 -1.47101e-014
lhumerus -16.1456 -14.0193 91.4459
lradius 23.8753
lwrist 6.38791
lhand -24.5504 -2.6066
lfingers 7.12502
lthumb 1.94575 27.3643
rfemur -25.0228 -2.22714 18.6996
rtibia 24.8855
rfoot -11.2368 -5.01014
rtoes 12.4778
lfemur -23.1055 5.97653 -20.6841
ltibia 20.4635
lfoot -8.14129 5.62505
ltoes 8.01515
238
root 0.690923 17.6726 -14.7754 12.6296 -1.11238 -0.469117
lowerback 3.13791 -0.201226 -0.212241
upperback 6.26596 -0.320776 1.38316
thorax 4.72057 -0.208049 1.54576
lowerneck -12.1691 0.716427 -1.9079
upperneck 35.7091 1.15333 1.13692
head 14.2274 0.385253 0.976636
rclavicle 7.7526e-015 -1.66979e-014
rhumerus -18.41 -4.06378 -85.1398
rradius 29.1452
rwrist 27.2633
rhand -17.7536 -27.0565
rfingers 7.12502
rthumb 8.50818 -56.8651
lclavicle 7.7526e-015 -1.66979e-014
lhumerus -15.9652 -14.1343 91.4816
lradius 23.7525
lwrist 6.32067
lhand -24.581 -2.59788
lfingers 7.12502
lthumb 1.91626 27.3733
rfemur -25.0446 -2.26265 18.6968
rtibia 24.8407
rfoot -11.212 -5.00485
rtoes 12.5118
lfemur -23.1429 5.99093 -20.6994
ltibia 20.4219
lfoot -8.1282 5.55429
ltoes 8.03268
239
root 0.692825 17.6731 -14.7828 12.648 -1.06494 -0.475444
lowerback 3.15224 -0.201652 -0.193702
upperback 6.27096 -0.321445 1.38914
thorax 4.71768 -0.207665 1.54161
lowerneck -12.1472 0.716457 -1.9019
upperneck 35.7088 1.1522 1.13553
head 14.2224 0.385632 0.974688
rclavicle 4.17448e-015 9.93923e-015
rhumerus -18.2875 -3.82968 -85.2234
rradius 29.1237
rwrist 27.2733
rhand -17.7396 -27.0696
rfingers 7.12502
rthumb 8.52167 -56.8777
lclavicle 4.17448e-015 9.93923e-015
lhumerus -15.7808 -14.2611 91.5239
lradius 23.6385
lwrist 6.26761
lhand -24.6208 -2.57942
lfingers 7.12502
lthumb 1.87783 27.3921
rfemur -25.0714 -2.3009 18.7028
rtibia 24.818
rfoot -11.1933 -4.99858
rtoes 12.5414
lfemur -23.194 6.00217 -20.7056
ltibia 20.4186
lfoot -8.1287 5.49107
ltoes 8.03678
240
root 0.694731 17.6726 -14.7906 12.6564 -1.01802 -0.4882
lowerback 3.17681 -0.19965 -0.171605
upperback 6.27816 -0.318953 1.39825
thorax 4.71121 -0.205625 1.53877
lowerneck -12.128 0.713613 -1.89502
upperneck 35.7111 1.1464 1.13497
head 14.2192 0.384234 0.972272
rclavicle -3.18055e-015 1.78906e-015
rhumerus -18.1624 -3.58107 -85.3068
rradius 29.1065
rwrist 27.2764
rhand -17.7388 -27.0921
rfingers 7.12502
rthumb 8.52244 -56.9001
lclavicle -3.18055e-015 1.78906e-015
lhumerus -15.5943 -14.4015 91.574
lradius 23.5288
lwrist 6.22323
lhand -24.6705 -2.56225
lfingers 7.12502
lthumb 1.82976 27.4097
rfemur -25.1017 -2.33922 18.7162
rtibia 24.8202
rfoot -11.1841 -4.99195
rtoes 12.5659
lfemur -23.257 6.01309 -20.7036
ltibia 20.4565
lfoot -8.14363 5.43479
ltoes 8.03184
241
root 0.696643 17.6711 -14.7987 12.6558 -0.974589 -0.505547
lowerback 3.21078 -0.195042 -0.148777
upperback 6.28713 -0.313039 1.40997
thorax 4.70122 -0.201916 1.53828
lowerneck -12.1069 0.707736 -1.89232
upperneck 35.7107 1.13599 1.13798
head 14.2145 0.380821 0.971311
rclavicle 2.98177e-015 5.96354e-016
rhumerus -18.0332 -3.324 -85.3891
rradius 29.0898
rwrist 27.2807
rhand -17.7543 -27.1004
rfingers 7.12502
rthumb 8.50747 -56.9091
lclavicle 2.98177e-015 5.96354e-016
lhumerus -15.411 -14.5615 91.6338
lradius 23.4305
lwrist 6.19148
lhand -24.7378 -2.54161
lfingers 7.12502
lthumb 1.76479 27.4308
rfemur -25.1388 -2.37501 18.7345
rtibia 24.85
rfoot -11.1856 -4.98535
rtoes 12.5753
lfemur -23.3329 6.02534 -20.6964
ltibia 20.5361
lfoot -8.17341 5.38711
ltoes 8.02116
242
root 0.69846 17.6686 -14.8071 12.6433 -0.939098 -0.525606
lowerback 3.25614 -0.186786 -0.128787
upperback 6.29939 -0.302263 1.42269
thorax 4.68814 -0.195956 1.54049
lowerneck -12.0823 0.69826 -1.89607
upperneck 35.7034 1.11863 1.15022
head 14.2057 0.374874 0.974068
rclavicle 4.96962e-016 1.05356e-014
rhumerus -17.8995 -3.05791 -85.4728
rradius 29.0763
rwrist 27.2884
rhand -17.7807 -27.1008
rfingers 7.12502
rthumb 8.48194 -56.9105
lclavicle 4.96962e-016 1.05356e-014
lhumerus -15.2307 -14.7524 91.7007
lradius 23.3488
lwrist 6.18331
lhand -24.8383 -2.54203
lfingers 7.12502
lthumb 1.66774 27.4312
rfemur -25.1807 -2.40003 18.754
rtibia 24.9095
rfoot -11.1992 -4.98265
rtoes 12.5764
lfemur -23.4183 6.04003 -20.6851
ltibia 20.6594
lfoot -8.21958 5.34935
ltoes 8.01602
243
root 0.700211 17.6651 -14.8157 12.6205 -0.912541 -0.547565
lowerback 3.31122 -0.175004 -0.110945
upperback 6.31532 -0.286733 1.43445
thorax 4.67333 -0.187718 1.54298
lowerneck -12.0574 0.687515 -1.89863
upperneck 35.6892 1.09769 1.16624
head 14.1937 0.368104 0.977516
rclavicle 4.67144e-015 -1.49089e-014
rhumerus -17.7651 -2.77911 -85.5615
rradius 29.0715
rwrist 27.3099
rhand -17.8282 -27.1111
rfingers 7.12502
rthumb 8.43617 -56.9226
lclavicle 4.67144e-015 -1.49089e-014
lhumerus -15.056 -14.983 91.7726
lradius 23.2899
lwrist 6.20503
lhand -24.9724 -2.56556
lfingers 7.12502
lthumb 1.53823 27.4086
rfemur -25.2307 -2.41516 18.7739
rtibia 25.0014
rfoot -11.2259 -4.9829
rtoes 12.5618
lfemur -23.5161 6.05892 -20.6721
ltibia 20.8283
lfoot -8.28382 5.32237
ltoes 7.99994
244
root 0.701796 17.6603 -14.8246 12.5889 -0.894625 -0.573487
lowerback 3.37489 -0.160366 -0.0945282
upperback 6.33445 -0.267381 1.44639
thorax 4.65693 -0.177663 1.54648
lowerneck -12.0374 0.675458 -1.90095
upperneck 35.6716 1.07362 1.18559
head 14.1814 0.360478 0.981793
rclavicle -1.19271e-015 -5.96354e-015
rhumerus -17.6313 -2.48612 -85.6554
rradius 29.0798
rwrist 27.3367
rhand -17.8898 -27.1267
rfingers 7.12502
rthumb 8.37671 -56.9406
lclavicle -1.19271e-015 -5.96354e-015
lhumerus -14.895 -15.2572 91.8492
lradius 23.2696
lwrist 6.26415
lhand -25.1352 -2.59138
lfingers 7.12502
lthumb 1.381 27.3839
rfemur -25.2909 -2.4157 18.796
rtibia 25.1272
rfoot -11.2666 -4.99
rtoes 12.5417
lfemur -23.6294 6.08168 -20.6544
ltibia 21.0455
lfoot -8.36695 5.30712
ltoes 7.97339
